Coordinates
version=1
nRows=11
nColumns=40
inDegrees=yes

Units are S.I. units (second, meters, Newtons, ...)
Angles are in degrees.

endheader
time	pelvis_tilt	pelvis_list	pelvis_rotation	pelvis_tx	pelvis_ty	pelvis_tz	hip_flexion_r	hip_adduction_r	hip_rotation_r	knee_angle_r	knee_angle_r_beta	ankle_angle_r	subtalar_angle_r	mtp_angle_r	hip_flexion_l	hip_adduction_l	hip_rotation_l	knee_angle_l	knee_angle_l_beta	ankle_angle_l	subtalar_angle_l	mtp_angle_l	lumbar_extension	lumbar_bending	lumbar_rotation	arm_flex_r	arm_add_r	arm_rot_r	elbow_flex_r	pro_sup_r	wrist_flex_r	wrist_dev_r	arm_flex_l	arm_add_l	arm_rot_l	elbow_flex_l	pro_sup_l	wrist_flex_l	wrist_dev_l
      4.13000000	     -3.68850898	     -5.96799111	     -2.28835903	      0.94712799	      0.91151613	      0.37602755	     28.85152292	     -7.05495957	     -2.50523704	     66.87262972	     66.87262972	      4.78158547	    -11.70888327	      0.75044166	     21.78746968	     -3.76108155	     -3.49357277	     35.75448993	     35.75448993	     19.99338921	    -16.22694950	      6.15669101	    -12.53616987	      6.21580651	      1.83258914	     -4.30375991	    -13.08183670	     -5.44587525	     25.48117059	     46.17405323	      0.00000000	      0.00000000	     22.74174037	    -18.69494134	     12.67845163	     39.42779118	     46.10796565	      0.00000000	      0.00000000
      4.15107143	     -3.61640291	     -5.87091839	     -3.26457437	      0.94584643	      0.91262789	      0.37543625	     29.85383753	     -6.99785641	     -2.52563545	     64.55808743	     64.55808743	      4.80813317	    -11.64305339	      0.35148180	     21.04697157	     -3.86448290	     -4.52262757	     35.22223602	     35.22223602	     20.21344469	    -16.04579547	      6.25153306	    -12.59431711	      5.95894937	      1.55920978	     -6.41001142	    -12.86757353	     -5.40272947	     25.12954098	     46.16818977	      0.00000000	      0.00000000	     24.44466101	    -19.27834755	     12.00906585	     40.27046952	     46.20954380	      0.00000000	      0.00000000
      4.17214286	     -3.75073727	     -5.83835784	     -4.21969564	      0.94434648	      0.91353441	      0.37492381	     30.90877940	     -6.86020230	     -2.73882832	     61.77222089	     61.77222089	      4.93660309	    -11.38808774	      0.39245642	     20.56201255	     -3.99540770	     -5.39757534	     34.71975611	     34.71975611	     20.32809288	    -16.04232684	      6.31414808	    -12.37368310	      5.82309839	      0.75889947	     -8.23750639	    -12.68090014	     -5.41786460	     24.77204579	     46.16738790	      0.00000000	      0.00000000	     25.95445258	    -20.34868249	     11.51309434	     40.77221008	     46.28169372	      0.00000000	      0.00000000
      4.19321429	     -3.62404727	     -5.81323694	     -5.25119680	      0.94303435	      0.91512897	      0.37463861	     31.17662174	     -6.59016016	     -2.90882906	     57.92057646	     57.92057646	      3.29096635	    -12.01745983	     -4.65341978	     19.57884706	     -4.15862337	     -6.50488152	     33.87482810	     33.87482810	     20.26390844	    -15.82994292	      5.81352878	    -12.62782372	      5.64222903	      1.06716629	    -12.26583459	    -12.80196363	     -5.62085032	     29.12153902	     45.95555460	      0.00000000	      0.00000000	     27.64980315	    -19.68179138	      6.65986450	     42.20233423	     46.82811598	      0.00000000	      0.00000000
      4.21428571	     -3.68199814	     -5.80843917	     -6.21643498	      0.94153939	      0.91662050	      0.37461615	     31.52374011	     -6.27486546	     -3.18365949	     53.93538145	     53.93538145	      3.35850966	    -11.37833567	     -4.66775689	     18.84994853	     -4.31424007	     -7.46097655	     33.09322115	     33.09322115	     20.29925518	    -15.67102649	      5.85539727	    -12.55946463	      5.48532547	      0.73996675	    -14.01662165	    -12.68159671	     -5.46890836	     28.78012991	     45.94584137	      0.00000000	      0.00000000	     29.28498948	    -20.36078651	      5.90628721	     42.96547432	     46.92530605	      0.00000000	      0.00000000
      4.23535714	     -3.78158173	     -5.90809474	     -7.18610934	      0.94005278	      0.91821313	      0.37498444	     31.49596446	     -5.79712621	     -3.56900353	     49.24990342	     49.24990342	      2.53276336	    -10.81519928	     -6.68639639	     18.08678467	     -4.60719259	     -8.46523098	     32.17197197	     32.17197197	     20.09141142	    -15.48465287	      5.19679645	    -12.47407366	      5.41552791	      0.55886630	    -16.40846164	    -12.74015267	     -5.10205902	     30.65540456	     45.82758152	      0.00000000	      0.00000000	     30.68099043	    -20.30001623	      2.36706863	     44.13752721	     47.27792145	      0.00000000	      0.00000000
      4.25642857	     -3.95546836	     -5.96975106	     -8.07723993	      0.93853135	      0.91989249	      0.37563092	     31.30213160	     -5.28996872	     -3.92357166	     44.33383276	     44.33383276	      2.48099063	     -9.46523446	     -6.12887385	     17.38516204	     -4.80961418	     -9.30883034	     31.19042842	     31.19042842	     20.05328539	    -15.30926912	      5.32579486	    -12.23408687	      5.30125616	      0.14259492	    -17.58505637	    -12.63630436	     -5.02122234	     30.45386578	     45.82210046	      0.00000000	      0.00000000	     32.03041077	    -21.04734113	      1.89321632	     44.73358431	     47.33801350	      0.00000000	      0.00000000
      4.27750000	     -4.04589902	     -6.05461237	     -8.92421001	      0.93704045	      0.92167300	      0.37658184	     30.71952454	     -4.75962903	     -4.34487839	     39.12953896	     39.12953896	      2.33438576	     -7.50508812	     -5.56220291	     16.58258746	     -5.04097641	    -10.18253318	     30.19239553	     30.19239553	     19.99631404	    -15.03478589	      5.31086389	    -12.14652143	      5.19014222	     -0.02747455	    -18.68451025	    -12.49917090	     -4.93215756	     30.51521961	     45.80535958	      0.00000000	      0.00000000	     33.40984343	    -21.55306928	      1.15345159	     45.58009141	     47.42726246	      0.00000000	      0.00000000
      4.29857143	     -4.21789121	     -6.04002231	     -9.71448862	      0.93562434	      0.92309253	      0.37783320	     30.10330087	     -4.37225904	     -4.95062228	     34.01058847	     34.01058847	      2.18445153	     -4.82111231	     -4.81432221	     15.85915298	     -5.21486148	    -11.20608310	     29.14997629	     29.14997629	     19.80641852	    -14.56002632	      4.77801414	    -11.93983626	      4.96297678	     -0.06445323	    -19.80452060	    -12.29284625	     -4.77428034	     31.35392158	     45.75328536	      0.00000000	      0.00000000	     34.57739273	    -21.68923871	     -0.50080053	     46.87027688	     47.59291094	      0.00000000	      0.00000000
      4.31964286	     -4.37168990	     -6.14374593	    -10.39203799	      0.93425934	      0.92450122	      0.37928552	     29.23756353	     -3.71534162	     -5.16144477	     28.89951401	     28.89951401	      1.77262096	     -2.43299427	     -3.56094721	     15.19042555	     -5.44316030	    -11.87699696	     28.24117277	     28.24117277	     19.67856587	    -14.33175093	      4.67389996	    -11.73099343	      4.91978645	     -0.26097078	    -20.43008871	    -12.13072700	     -4.69390958	     31.61101368	     45.73323052	      0.00000000	      0.00000000	     35.68841819	    -22.08708820	     -1.17221306	     47.63049084	     47.66856812	      0.00000000	      0.00000000
      4.34071429	     -4.40212554	     -6.14331157	    -11.00218443	      0.93309094	      0.92569388	      0.38079730	     28.48338546	     -3.36005124	     -5.66939450	     24.77977907	     24.77977907	      2.65903710	      1.10563761	      0.99204910	     14.33299523	     -5.55256798	    -12.72217549	     27.17232677	     27.17232677	     18.94330148	    -14.16236473	      2.76913646	    -11.70943708	      4.76825029	     -0.61596040	    -21.24912387	    -12.23842362	     -3.92455879	     33.65503498	     45.61159964	      0.00000000	      0.00000000	     36.14773069	    -21.89896793	     -4.80607541	     49.64087726	     47.94461852	      0.00000000	      0.00000000
